<?xml version="1.0" standalone="no"?>
<!DOCTYPE svg PUBLIC "-//W3C//DTD SVG 20010904//EN"
 "http://www.w3.org/TR/2001/REC-SVG-20010904/DTD/svg10.dtd">
<svg version="1.0" xmlns="http://www.w3.org/2000/svg"
 width="360.000000pt" height="360.000000pt" viewBox="0 0 360.000000 360.000000"
 preserveAspectRatio="xMidYMid meet">

<g transform="translate(0.000000,360.000000) scale(0.100000,-0.100000)"
fill="#000000" stroke="none">
<path d="M905 3454 c-190 -17 -367 -86 -523 -203 -369 -279 -487 -794 -276
-1211 51 -102 107 -176 280 -367 89 -98 338 -374 554 -613 217 -239 490 -541
608 -672 117 -130 223 -239 235 -242 11 -3 32 0 46 7 14 7 193 199 399 427
1295 1436 1188 1314 1252 1432 43 81 70 150 96 248 27 97 24 347 -4 452 -49
179 -132 327 -256 452 -334 338 -858 387 -1250 116 -78 -54 -209 -183 -242
-238 -10 -18 -21 -32 -24 -32 -3 0 -20 23 -38 50 -84 123 -275 269 -432 329
-122 47 -306 75 -425 65z m270 -175 c220 -52 416 -204 531 -410 44 -79 70 -97
118 -85 15 4 34 20 44 36 9 17 33 57 52 91 72 126 203 244 351 314 114 54 215
76 349 76 242 1 436 -83 602 -260 106 -113 162 -215 205 -372 27 -97 24 -300
-5 -403 -28 -98 -79 -204 -135 -277 -36 -49 -506 -574 -1279 -1429 -107 -118
-200 -215 -207 -215 -6 0 -132 133 -279 296 -147 163 -469 520 -717 794 -247
273 -469 522 -491 552 -56 74 -111 188 -136 281 -28 102 -31 306 -5 401 42
155 99 258 205 372 208 222 500 310 797 238z"/>
</g>
</svg>
