<svg width="16" height="21" viewBox="0 0 16 21" fill="none" xmlns="http://www.w3.org/2000/svg">
<path d="M0 2.95459C0 1.85002 0.89543 0.95459 2 0.95459H14C15.1046 0.95459 16 1.85002 16 2.95459V19.9546C16 20.3292 15.7907 20.6724 15.4576 20.8438C15.1245 21.0152 14.7236 20.986 14.4188 20.7683L8 16.1835L1.58124 20.7683C1.27642 20.986 0.875489 21.0152 0.542418 20.8438C0.209347 20.6724 0 20.3292 0 19.9546V2.95459ZM14 2.95459L2 2.95459V18.0114L7.41876 14.1409C7.76646 13.8925 8.23354 13.8925 8.58124 14.1409L14 18.0114V2.95459Z" fill="#7D848D"/>
</svg>
