<?xml version="1.0" standalone="no"?>
<!DOCTYPE svg PUBLIC "-//W3C//DTD SVG 20010904//EN"
 "http://www.w3.org/TR/2001/REC-SVG-20010904/DTD/svg10.dtd">
<svg version="1.0" xmlns="http://www.w3.org/2000/svg"
 width="500.000000pt" height="455.000000pt" viewBox="0 0 500.000000 455.000000"
 preserveAspectRatio="xMidYMid meet">

<g transform="translate(0.000000,455.000000) scale(0.100000,-0.100000)"
fill="#000000" stroke="none">
<path d="M1071 4484 c-246 -41 -472 -162 -662 -353 -122 -123 -190 -225 -248
-376 -235 -601 -90 -1364 361 -1900 113 -134 393 -404 653 -629 127 -109 474
-418 773 -685 299 -267 547 -486 552 -486 5 0 253 219 552 486 299 267 646
576 773 685 250 216 537 492 646 620 456 537 604 1305 368 1909 -58 151 -126
253 -248 376 -248 250 -536 369 -891 369 -393 0 -692 -127 -962 -408 -83 -86
-218 -259 -231 -295 -2 -7 -6 -10 -8 -7 -2 3 -24 34 -48 70 -205 301 -464 503
-750 586 -183 53 -445 69 -630 38z"/>
</g>
</svg>
